<?xml version="1.0" encoding="utf-8"?>
<!-- Generator: Adobe Illustrator 27.5.0, SVG Export Plug-In . SVG Version: 6.00 Build 0)  -->
<svg version="1.1" xmlns="http://www.w3.org/2000/svg" xmlns:xlink="http://www.w3.org/1999/xlink" x="0px" y="0px"
	 viewBox="0 0 500 500" style="enable-background:new 0 0 500 500;" xml:space="preserve">
<g id="BACKGROUND">
	<rect style="fill:#FFFFFF;" width="500" height="500"/>
</g>
<g id="OBJECT">
	<g>
		<path style="fill:#F5F5F5;" d="M430.154,500H35.759V376.946c0-12.261,9.939-22.201,22.201-22.201h349.994
			c12.261,0,22.201,9.94,22.201,22.201V500z"/>
		<rect x="283.582" y="377.522" style="opacity:0.5;fill:#D6D6D6;" width="132.831" height="41.732"/>
		<rect x="283.582" y="427.373" style="opacity:0.5;fill:#D6D6D6;" width="132.831" height="41.732"/>
		<rect x="283.582" y="477.223" style="opacity:0.5;fill:#D6D6D6;" width="132.831" height="22.777"/>
		<path style="fill:#D6D6D6;" d="M355.816,398.388c0,3.214-2.605,5.819-5.819,5.819c-3.214,0-5.819-2.605-5.819-5.819
			c0-3.213,2.605-5.818,5.819-5.818C353.211,392.57,355.816,395.175,355.816,398.388z"/>
		<path style="fill:#D6D6D6;" d="M355.816,448.239c0,3.213-2.605,5.818-5.819,5.818c-3.214,0-5.819-2.605-5.819-5.818
			c0-3.214,2.605-5.818,5.819-5.818C353.211,442.42,355.816,445.025,355.816,448.239z"/>
		<path style="fill:#D6D6D6;" d="M355.489,500c0.209-0.599,0.328-1.241,0.328-1.911c0-3.214-2.605-5.819-5.819-5.819
			c-3.213,0-5.818,2.605-5.818,5.819c0,0.67,0.119,1.311,0.328,1.911H355.489z"/>
		<rect x="51.506" y="377.522" style="opacity:0.5;fill:#D6D6D6;" width="132.831" height="41.732"/>
		<rect x="51.506" y="427.373" style="opacity:0.5;fill:#D6D6D6;" width="132.831" height="41.732"/>
		<rect x="51.506" y="477.223" style="opacity:0.5;fill:#D6D6D6;" width="132.831" height="22.777"/>
		<path style="fill:#D6D6D6;" d="M123.74,398.388c0,3.214-2.605,5.819-5.818,5.819s-5.819-2.605-5.819-5.819
			c0-3.213,2.605-5.818,5.819-5.818S123.74,395.175,123.74,398.388z"/>
		<path style="fill:#D6D6D6;" d="M123.74,448.239c0,3.213-2.605,5.818-5.818,5.818s-5.819-2.605-5.819-5.818
			c0-3.214,2.605-5.818,5.819-5.818S123.74,445.025,123.74,448.239z"/>
		<path style="fill:#D6D6D6;" d="M123.412,500c0.209-0.599,0.328-1.241,0.328-1.911c0-3.214-2.605-5.819-5.819-5.819
			c-3.213,0-5.818,2.605-5.818,5.819c0,0.67,0.119,1.311,0.328,1.911H123.412z"/>
		<rect x="68.371" y="282.134" style="fill:#D6D6D6;" width="12.841" height="72.611"/>
		<rect x="81.212" y="297.973" style="fill:#F5F5F5;" width="12.841" height="56.772"/>
		<rect x="94.052" y="312.172" style="fill:#D6D6D6;" width="12.841" height="42.573"/>
		<path style="fill:#F5F5F5;" d="M449.606,296.929H194.389c-8.082,0-14.634-6.552-14.634-14.634V111.969
			c0-8.082,6.552-14.634,14.634-14.634h255.217c8.082,0,14.634,6.552,14.634,14.634v170.326
			C464.241,290.377,457.689,296.929,449.606,296.929z"/>
		<path style="fill:#D6D6D6;" d="M464.24,124.66v-12.691c0-8.082-6.552-14.634-14.634-14.634H194.389
			c-8.082,0-14.634,6.552-14.634,14.634v12.691H464.24z"/>
		<path style="opacity:0.5;fill:#D6D6D6;" d="M319.409,171.616l-12.497-16.122c-1.158-1.494-2.942-2.368-4.833-2.368h-44.662
			c-3.377,0-6.115,2.738-6.115,6.115v12.375v87.129c0,3.377,2.738,6.115,6.115,6.115h136.896c3.377,0,6.115-2.738,6.115-6.115
			V177.73c0-3.377-2.738-6.115-6.115-6.115H319.409z"/>
		
			<path style="fill:none;stroke:#262626;stroke-width:0.4147;stroke-linecap:round;stroke-linejoin:round;stroke-miterlimit:10;" d="
			M319.409,171.616l-12.497-16.122c-1.158-1.494-2.942-2.368-4.833-2.368h-44.662c-3.377,0-6.115,2.738-6.115,6.115v12.375v87.129
			c0,3.377,2.738,6.115,6.115,6.115h136.896c3.377,0,6.115-2.738,6.115-6.115V177.73c0-3.377-2.738-6.115-6.115-6.115H319.409z"/>
		<polygon style="fill:#D6D6D6;" points="339.202,193.857 325.865,207.193 312.529,193.857 304.482,201.905 317.818,215.241 
			304.482,228.577 312.529,236.625 325.865,223.289 339.201,236.625 347.249,228.577 333.913,215.241 347.249,201.905 		"/>
		<path style="fill:#F5F5F5;" d="M197.116,112.159c0,2.117-1.716,3.834-3.834,3.834c-2.117,0-3.834-1.716-3.834-3.834
			c0-2.117,1.716-3.834,3.834-3.834C195.4,108.325,197.116,110.041,197.116,112.159z"/>
		<path style="fill:#F5F5F5;" d="M211.103,112.159c0,2.117-1.716,3.834-3.834,3.834c-2.117,0-3.834-1.716-3.834-3.834
			c0-2.117,1.716-3.834,3.834-3.834C209.387,108.325,211.103,110.041,211.103,112.159z"/>
		<path style="fill:#F5F5F5;" d="M225.778,112.159c0,2.117-1.716,3.834-3.834,3.834c-2.117,0-3.834-1.716-3.834-3.834
			c0-2.117,1.716-3.834,3.834-3.834C224.062,108.325,225.778,110.041,225.778,112.159z"/>
		<path style="fill:#F5F5F5;" d="M407.601,115.992H253.994c-2.117,0-3.834-1.716-3.834-3.834l0,0c0-2.117,1.716-3.834,3.834-3.834
			h153.607c2.117,0,3.834,1.716,3.834,3.834l0,0C411.434,114.276,409.718,115.992,407.601,115.992z"/>
		<path style="fill:#262626;" d="M231.042,178.49c-2.819-2.494-9.947-8.101-20.637-9.478c-1.664-0.214-14.526-1.685-25.682,5.962
			c-2.168,1.486-6.262,4.362-9.019,9.631c-0.615,1.175-1.348,2.822-2.446,7.338c-2.917,11.995-0.992,13.731-3.172,17.824
			c-3.294,6.183-8.351,3.471-15.161,10.743c-1.105,1.18-7.905,8.442-7.502,17.598c0.343,7.797,5.61,10.181,3.975,14.522
			c-1.991,5.284-10.44,3.474-15.287,9.325c-5.042,6.087-2.664,16.216-1.529,19.414c11.738,33.068,133.068,8.254,144.306-1.987
			c3.086-2.813,4.127-6.268,4.127-6.268c1.237-4.106,0.453-9.385-2.432-12.953c-5.037-6.228-12.301-2.077-17.135-7.531
			c-4.59-5.179,0.404-10.677-3.516-19.108c-4.204-9.042-11.541-6.148-16.664-14.674c-5.975-9.943,1.335-18.317-5.196-31.185
			C235.824,183.228,232.919,180.207,231.042,178.49z"/>
		<polygon style="fill:#4450E4;" points="256.488,354.745 267.119,500 218.813,500 209.412,437.293 199.552,500 148.8,500 
			169.896,358.108 		"/>
		<polygon style="fill:#3849C6;" points="209.596,438.523 218.813,500 231.883,499.739 216.367,385.013 		"/>
		<path style="fill:#FDB6D6;" d="M192.951,239.734h25.483c15.93-0.883,26.097,3.131,32.022,6.4
			c31.779,17.528,42.878,69.477,42.879,69.478l0,0l-35.312,24.535l1.834,19.49c0,0-69.707,5.503-79.796,5.732
			c-10.089,0.229-13.299,0-13.299,0l-2.293-23.618h-38.981c3.421-18.388,10.02-45.449,22.93-70.853
			c4.956-9.752,10.445-18.481,20.637-24.535C178.168,240.95,187.318,239.885,192.951,239.734z"/>
		<path style="fill:#FC90C7;" d="M259.857,359.637l-3.369-70.777c-1.66,7.887-7.998,33.089-31.561,53.197
			c-24.344,20.775-51.26,22.618-59.159,22.873c14.476-0.21,29.464-0.705,44.926-1.545
			C227.707,362.461,244.108,361.184,259.857,359.637z"/>
		<g>
			<path style="fill:#F7A99C;" d="M206.195,250.937L206.195,250.937c-7.09,0.278-13.064-5.244-13.342-12.334l-1.084-27.627
				l25.676-1.008l1.084,27.627C218.808,244.685,213.286,250.659,206.195,250.937z"/>
			<path style="fill:#FF7769;" d="M218.226,229.862l-17.029-7.999c0.221,1.442,1.412,8.191,7.543,12.665
				c3.915,2.856,7.942,3.397,9.798,3.526L218.226,229.862z"/>
			<path style="fill:#F7A99C;" d="M190.843,202.437c-0.096-0.415-1.218-1.006-1.564-1.21c-0.584-0.345-1.212-0.614-1.864-0.799
				c-1.267-0.359-2.647-0.403-3.924-0.063c-2.539,0.678-4.733,2.91-5.066,5.559c-0.193,1.539,0.216,3.11,0.922,4.491
				c1.061,2.077,2.796,3.793,4.857,4.885c1.708,0.905,3.632,1.383,5.562,1.43c0.387,0.009,4.329-0.222,4.295-0.372
				C192.988,211.717,191.915,207.077,190.843,202.437z"/>
			<path style="fill:#F7A99C;" d="M187.332,202.829c0.377,2.051,2.574,12.861,12.648,20.196c1.855,1.351,14.192,10.335,25.012,5.354
				c13.903-6.4,11.542-29.525,11.398-30.777c-0.487-4.232-1.92-16.696-12.508-22.998c-8.641-5.143-17.725-2.817-19.011-2.466
				c-1.356,0.37-9.994,2.878-15.024,11.611C185.282,191.675,186.715,199.473,187.332,202.829z"/>
			<path style="fill:#262626;" d="M228.381,197.902c0.291,1.802,1.733,3.067,3.221,2.826c1.487-0.24,2.457-1.896,2.165-3.697
				c-0.291-1.802-1.733-3.067-3.221-2.827C229.059,194.445,228.09,196.101,228.381,197.902z"/>
			<path style="fill:#262626;" d="M212.147,200.528c0.291,1.802,1.733,3.067,3.221,2.826c1.487-0.24,2.457-1.896,2.165-3.698
				c-0.291-1.801-1.733-3.067-3.221-2.826C212.825,197.071,211.855,198.726,212.147,200.528z"/>
			
				<path style="fill:none;stroke:#262626;stroke-width:0.733;stroke-linecap:round;stroke-linejoin:round;stroke-miterlimit:10;" d="
				M223.554,200.785l2.62,3.288c0.482,0.604,0.34,1.492-0.305,1.917l-2.245,1.479"/>
			<path style="fill:#FF7769;" d="M206.979,209.246c0.327,2.021,2.231,3.395,4.252,3.068c2.022-0.327,3.395-2.231,3.068-4.252
				c-0.327-2.021-2.231-3.395-4.252-3.068C208.026,205.32,206.652,207.224,206.979,209.246z"/>
			
				<path style="fill:none;stroke:#262626;stroke-width:0.733;stroke-linecap:round;stroke-linejoin:round;stroke-miterlimit:10;" d="
				M189.449,211.784c-0.002-0.407-0.065-3.166-2.349-5.077c-1.788-1.497-3.808-1.527-4.358-1.518"/>
			
				<path style="fill:none;stroke:#262626;stroke-width:0.733;stroke-linecap:round;stroke-linejoin:round;stroke-miterlimit:10;" d="
				M187.334,207.244c-0.124-0.015-1.614-0.168-2.61,0.99c-0.819,0.952-0.701,2.089-0.678,2.278"/>
			<path style="fill:#262626;" d="M186.918,200.31c0,0,1.831,0.097,3.254,1.413c1.423,1.316,1.994,3.637,1.994,3.637
				c3.499-0.552,11.498-2.32,18.577-8.918c3.837-3.577,6.121-7.377,7.451-10.106c1.374,1.151,3.71,2.868,6.973,4.14
				c4.258,1.659,9.525,2.34,10.171,0.907c0.12-0.265-0.05-1.015-0.389-2.514c-0.123-0.543-0.259-1.348-0.552-2.111
				c-0.573-1.497-1.298-2.934-2.154-4.289c-1.712-2.712-3.945-5.095-6.543-6.976c-1.687-1.222-3.529-2.232-5.475-2.98
				c-6.179-2.373-14.632-2.075-21.769,2.062c0,0-7.969,4.62-11.249,13.225c-1.127,2.958-1.333,5.881-1.375,6.894
				c-0.084,2.005,0.189,3.306,0.529,4.299C186.554,199.554,186.763,200.004,186.918,200.31z"/>
			<path style="fill:#FF7769;" d="M234.635,202.398c0.699-0.113,1.38-0.011,1.99,0.239c-0.001,1.992-0.107,4.411-0.453,6.987
				c-0.118,0.031-0.23,0.074-0.354,0.094c-2.021,0.327-3.925-1.047-4.252-3.068C231.24,204.629,232.614,202.725,234.635,202.398z"/>
			<path style="fill:#FFFFFF;" d="M226.823,215.1c0.065,1.826-1.661,3.369-3.855,3.446c-2.194,0.078-4.025-1.339-4.09-3.165
				c-0.065-1.826,1.661-3.369,3.855-3.446C224.927,211.858,226.758,213.275,226.823,215.1z"/>
		</g>
		<g>
			<path style="fill:#2A83C6;" d="M315.883,299.005h-78.622c-2.168,0-3.926-1.758-3.926-3.926v-5.149h82.548V299.005z"/>
			<path style="fill:#2A83C6;" d="M394.965,299.005H305.08c-1.773,0-2.834-1.437-2.37-3.21l17.289-66.017
				c0.464-1.773,2.278-3.21,4.051-3.21h89.885c1.773,0,2.834,1.437,2.37,3.21l-17.289,66.017
				C398.551,297.567,396.738,299.005,394.965,299.005z"/>
			<path style="fill:#3897E9;" d="M400.621,299.005h-89.885c-1.773,0-2.834-1.437-2.37-3.21l17.289-66.017
				c0.464-1.773,2.278-3.21,4.051-3.21h89.885c1.773,0,2.834,1.437,2.37,3.21l-17.289,66.017
				C404.208,297.567,402.394,299.005,400.621,299.005z"/>
			<path style="fill:#5FBBFF;" d="M419.793,238.053l-15.121,57.741c0,0-0.126,3.21-5.477,3.21c-5.35,0-85.452,0-85.452,0
				c12.836-0.721,39.545-3.998,66.802-21.762C400.857,264.005,413.173,248.132,419.793,238.053z"/>
			<path style="fill:#FEC02D;" d="M376.265,262.158c-0.852,4.068-4.841,7.366-8.91,7.366c-4.068,0-6.675-3.298-5.823-7.366
				c0.852-4.068,4.841-7.366,8.91-7.366S377.117,258.09,376.265,262.158z"/>
			
				<line style="fill:none;stroke:#262626;stroke-width:0.4147;stroke-linecap:round;stroke-linejoin:round;stroke-miterlimit:10;" x1="333.692" y1="238.053" x2="321.998" y2="277.563"/>
		</g>
		<path style="fill:#F7A99C;" d="M288.449,319.007c0,0,2.67,9.592,4.887,9.519c2.072-0.068,32.134-25.992,36.041-29.368
			c0.272-0.235,0.615-0.361,0.974-0.361h7.393v-11.847c0.053-0.323,0.186-0.835,0.554-1.338c0.822-1.122,2.139-1.275,2.389-1.299
			c0.236,0.013,1.672,0.118,2.541,1.299c0.367,0.499,0.5,1.009,0.554,1.338c1.83-0.676,3.737-0.323,4.802,0.873
			c0.665,0.747,0.827,1.629,0.873,2.108c0.092-0.131,1.08-1.496,2.751-1.49c1.419,0.004,2.732,0.994,3.21,2.465l2.116,0.105
			c1.462,0.072,2.638,1.219,2.752,2.679c0.138,1.775,0.272,4.015,0.176,5.128c-0.172,2.006-2.981,5.503-5.216,6.306
			c-2.236,0.803-3.038,0.975-3.038,0.975s-51,54.764-56.045,57.057c-5.044,2.293-13.146,2.446-19.414,0
			c-6.268-2.446-18.726-23.006-18.726-23.006L288.449,319.007z"/>
		
			<line style="fill:none;stroke:#262626;stroke-width:0.4147;stroke-linecap:round;stroke-linejoin:round;stroke-miterlimit:10;" x1="343.781" y1="286.949" x2="343.781" y2="296.006"/>
		
			<line style="fill:none;stroke:#262626;stroke-width:0.4147;stroke-linecap:round;stroke-linejoin:round;stroke-miterlimit:10;" x1="349.456" y1="289.93" x2="349.456" y2="296.006"/>
		
			<line style="fill:none;stroke:#262626;stroke-width:0.4147;stroke-linecap:round;stroke-linejoin:round;stroke-miterlimit:10;" x1="355.418" y1="290.904" x2="355.418" y2="297.841"/>
		
			<line style="fill:none;stroke:#262626;stroke-width:0.4147;stroke-linecap:round;stroke-linejoin:round;stroke-miterlimit:10;" x1="297.31" y1="325.916" x2="287.947" y2="332.58"/>
		
			<line style="fill:none;stroke:#262626;stroke-width:0.4147;stroke-linecap:round;stroke-linejoin:round;stroke-miterlimit:10;" x1="170.431" y1="342.21" x2="176.622" y2="307.357"/>
		
			<line style="fill:none;stroke:#262626;stroke-width:0.4147;stroke-linecap:round;stroke-linejoin:round;stroke-miterlimit:10;" x1="258.023" y1="340.147" x2="256.488" y2="299.004"/>
		<g>
			<path style="fill:#F7A99C;" d="M200.378,342.305c0,0,15.301-3.712,21.009-8.303c4.885-3.928,12.631-11.251,14.763-13.28
				c0.322-0.306,0.817-0.317,1.158-0.031l0.567,0.476c1.754,1.472,1.978,4.088,0.501,5.838l-3.314,3.925l15.078-1.75
				c1.294-0.15,2.446,0.823,2.514,2.123c0.061,1.147-0.751,2.157-1.884,2.345l-10.217,1.697l15.353,0.408
				c1.189,0.031,2.154,0.971,2.216,2.159l0.002,0.036c0.066,1.257-0.899,2.33-2.157,2.397l0.16,0.03
				c1.234,0.231,2.116,1.329,2.074,2.584c-0.048,1.453-1.301,2.57-2.749,2.452l-0.951-0.077c1.193,0.196,1.953,1.383,1.632,2.548
				l0,0c-0.469,1.702-1.999,2.889-3.764,2.914c-4.218,0.061-6.617-0.572-10.99,0.211c-3.46,0.619-3.182,2.258-7.589,4.343
				c-5.366,2.539-8.209,1.258-15.915,2.569c-2.926,0.498-7.109,1.464-12.059,3.541L200.378,342.305z"/>
			
				<path style="fill:none;stroke:#262626;stroke-width:0.4147;stroke-linecap:round;stroke-linejoin:round;stroke-miterlimit:10;" d="
				M252.61,331.84c0,0-0.011,1.441-1.507,1.721s-13.084,2.29-13.084,2.29"/>
			
				<line style="fill:none;stroke:#262626;stroke-width:0.4147;stroke-linecap:round;stroke-linejoin:round;stroke-miterlimit:10;" x1="255.966" y1="340.343" x2="241.622" y2="339.898"/>
			
				<line style="fill:none;stroke:#262626;stroke-width:0.4147;stroke-linecap:round;stroke-linejoin:round;stroke-miterlimit:10;" x1="254.904" y1="345.444" x2="240.505" y2="344.951"/>
			
				<path style="fill:none;stroke:#262626;stroke-width:0.4147;stroke-linecap:round;stroke-linejoin:round;stroke-miterlimit:10;" d="
				M238.535,321.874c0,0,1.395,2.32,0.617,3.725c-0.778,1.405-7.465,9.578-7.465,9.578"/>
		</g>
		<path style="fill:#F7A99C;" d="M200.378,342.305c-18.896,0.283-26.776,0.149-29.947-0.094c-0.2-0.015-5.962-0.459-5.962-0.459l0,0
			h-35.312c0,0,0.115,27.631,8.14,32.904c8.026,5.274,68.518-13.198,68.518-13.198L200.378,342.305z"/>
		
			<line style="fill:none;stroke:#262626;stroke-width:0.4147;stroke-linecap:round;stroke-linejoin:round;stroke-miterlimit:10;" x1="169.65" y1="342.15" x2="155.87" y2="343.013"/>
		
			<polyline style="fill:none;stroke:#262626;stroke-width:0.4147;stroke-linecap:round;stroke-linejoin:round;stroke-miterlimit:10;" points="
			209.412,437.293 216.367,385.013 233.947,375.603 		"/>
		<polygon style="fill:#FF7769;" points="288.449,319.007 290.401,324.621 264.274,349.659 258.023,340.147 		"/>
		
			<path style="fill:none;stroke:#FFFFFF;stroke-width:0.4147;stroke-linecap:round;stroke-linejoin:round;stroke-miterlimit:10;" d="
			M167.595,252.693c-7.792,6.29-13.505,15.276-17.411,24.412c-3.504,8.193-5.861,16.82-8.51,25.328"/>
		
			<path style="fill:none;stroke:#262626;stroke-width:0.4147;stroke-linecap:round;stroke-linejoin:round;stroke-miterlimit:10;" d="
			M187.334,240.169c0.708,9.786,9.161,17.214,18.638,16.742c9.038-0.45,16.508-7.961,16.878-17.3"/>
		<ellipse style="fill:#262626;" cx="178.456" cy="173.14" rx="12.382" ry="13.299"/>
		
			<path style="fill:none;stroke:#262626;stroke-width:0.4147;stroke-linecap:round;stroke-linejoin:round;stroke-miterlimit:10;" d="
			M180.52,183.076c-4.059,1.372-9.792,4.059-12.924,9.631c-3.357,5.97-0.456,9.43-3.126,15.592
			c-4.466,10.308-15.579,7.538-19.72,16.739c-3.987,8.859,4.572,15.296-0.459,24.306c-2.816,5.043-6.599,5.001-8.943,10.548
			c-2.24,5.303-1.13,10.897,0.229,14.905"/>
		
			<path style="fill:none;stroke:#262626;stroke-width:0.4147;stroke-linecap:round;stroke-linejoin:round;stroke-miterlimit:10;" d="
			M239.388,212.362c2.222,2.283,5.949,5.878,11.068,9.695c8.225,6.133,11.412,6.404,13.758,10.777
			c3.612,6.734-1.412,10.819,2.04,16.459c4.357,7.119,14.35,3.866,17.328,10.598c2.469,5.582-1.268,14.904-1.269,14.905l0,0"/>
		<path style="fill:#FEC02D;" d="M129.149,143.663c15.839,0,28.68,12.247,28.68,27.355c0,5.441-1.685,10.497-4.556,14.758
			l4.571,12.603l-10.663-6.101c-4.927,3.807-11.197,6.096-18.032,6.096c-15.839,0-28.68-12.247-28.68-27.355
			C100.469,155.91,113.31,143.663,129.149,143.663z"/>
		<g>
			<path style="fill:#FF7129;" d="M125.906,178.587c0.112-2.067,0.359-3.722,0.743-4.966c0.383-1.244,1.059-2.367,2.027-3.368
				c0.56-0.602,1.184-1.113,1.875-1.532c0.69-0.419,1.329-0.868,1.917-1.345c0.587-0.477,1.091-1.021,1.511-1.631
				c0.419-0.61,0.657-1.422,0.712-2.438c0.093-1.716-0.315-2.942-1.224-3.676c-0.909-0.734-2.012-1.137-3.307-1.207
				c-1.857-0.1-3.164,0.348-3.92,1.343c-0.757,0.996-1.27,2.365-1.54,4.106l-6.778-0.367c0.093-1.716,0.457-3.26,1.093-4.631
				c0.636-1.37,1.497-2.519,2.584-3.444c1.086-0.924,2.37-1.611,3.853-2.058c1.481-0.447,3.099-0.623,4.85-0.528
				c3.783,0.205,6.727,1.137,8.834,2.797c2.105,1.66,3.065,4.223,2.878,7.691c-0.061,1.122-0.228,2.096-0.501,2.924
				c-0.274,0.828-0.657,1.572-1.148,2.23c-0.493,0.658-1.088,1.268-1.785,1.827c-0.698,0.56-1.484,1.132-2.359,1.717
				c-0.803,0.554-1.455,1.072-1.955,1.554c-0.5,0.483-0.889,0.998-1.164,1.544c-0.276,0.547-0.465,1.126-0.568,1.735
				c-0.104,0.609-0.176,1.3-0.217,2.07L125.906,178.587z M125.148,188.717l0.372-6.883l7.093,0.384l-0.372,6.883L125.148,188.717z"
				/>
		</g>
		
			<ellipse transform="matrix(0.2328 -0.9725 0.9725 0.2328 -29.5866 158.2236)" style="fill:#F5F5F5;" cx="85.492" cy="97.864" rx="37.241" ry="37.241"/>
		
			<ellipse transform="matrix(0.2326 -0.9726 0.9726 0.2326 -29.5738 158.2481)" style="opacity:0.5;fill:#D6D6D6;" cx="85.492" cy="97.864" rx="29.031" ry="29.031"/>
		<path style="fill:#D6D6D6;" d="M84.989,119.675L84.989,119.675c-0.633,0-1.146-0.513-1.146-1.146v-21.21
			c0-0.633,0.513-1.146,1.146-1.146l0,0c0.633,0,1.146,0.513,1.146,1.146v21.21C86.135,119.162,85.622,119.675,84.989,119.675z"/>
		<path style="fill:#D6D6D6;" d="M101.556,96.718L101.556,96.718c0,0.633-0.513,1.146-1.146,1.146h-15.42
			c-0.633,0-1.146-0.513-1.146-1.146l0,0c0-0.633,0.513-1.146,1.146-1.146h15.42C101.042,95.571,101.556,96.085,101.556,96.718z"/>
		
			<path style="fill:none;stroke:#262626;stroke-width:0.4147;stroke-linecap:round;stroke-linejoin:round;stroke-miterlimit:10;" d="
			M197.116,97.864h254.599c6.917,0,12.525,5.608,12.525,12.525l0,171.905"/>
		
			<line style="fill:none;stroke:#262626;stroke-width:0.4147;stroke-linecap:round;stroke-linejoin:round;stroke-miterlimit:10;" x1="81.212" y1="282.134" x2="81.212" y2="354.745"/>
		
			<line style="fill:none;stroke:#262626;stroke-width:0.4147;stroke-linecap:round;stroke-linejoin:round;stroke-miterlimit:10;" x1="94.052" y1="297.973" x2="94.052" y2="354.745"/>
	</g>
</g>
</svg>
